<svg id="light" enable-background="new 0 0 24 24" height="612" viewBox="0 0 20 20" width="612" xmlns="http://www.w3.org/2000/svg"><g><path d="m15.5 20h-12c-1.379 0-2.5-1.122-2.5-2.5v-15c0-1.378 1.121-2.5 2.5-2.5h9.008c.922 0 1.823.374 2.475 1.025l1.992 1.992c.661.662 1.025 1.541 1.025 2.476v12.007c0 1.378-1.121 2.5-2.5 2.5zm-12-19c-.827 0-1.5.673-1.5 1.5v15c0 .827.673 1.5 1.5 1.5h12c.827 0 1.5-.673 1.5-1.5v-12.007c0-.667-.26-1.295-.732-1.768l-1.992-1.992c-.465-.466-1.11-.733-1.768-.733z"/></g><g><path d="m13.5 8h-8c-.276 0-.5-.224-.5-.5s.224-.5.5-.5h8c.276 0 .5.224.5.5s-.224.5-.5.5z"/></g><g><path d="m13.5 12h-8c-.276 0-.5-.224-.5-.5s.224-.5.5-.5h8c.276 0 .5.224.5.5s-.224.5-.5.5z"/></g><g><path d="m13.5 16h-8c-.276 0-.5-.224-.5-.5s.224-.5.5-.5h8c.276 0 .5.224.5.5s-.224.5-.5.5z"/></g></svg>